<svg version="1.1" id="Layer_1" xmlns="http://www.w3.org/2000/svg" xmlns:xlink="http://www.w3.org/1999/xlink" x="0px" y="0px"
	 viewBox="0 0 477.8 67.497" style="enable-background:new 0 0 477.8 67.497;"
	 xml:space="preserve">
<style type="text/css">
<![CDATA[
	.st0{fill:none;stroke:#000000;stroke-miterlimit:10;}
]]>

	.st0 {
		stroke-dasharray: 800;
		stroke-dashoffset: 0;
		-webkit-animation: dash 10s linear forwards;
		-o-animation: dash 10s linear forwards;
		-moz-animation: dash 10s linear forwards;
		animation: dash 10s linear forwards;
		-webkit-animation-delay: 2s; /* Chrome, Safari, Opera */
    animation-delay: 2s;
	}

	@keyframes dash {
		from {
			stroke-dashoffset: 800;
		}
		to {
			stroke-dashoffset: 0;
		}

	}

</style>
<g>
	<path class="st0" d="M16.203,59.745c-1.158,0-3.838,2.437-3.838-15.229c0-13.583,2.68-22.233,2.68-24.487
		c0-1.828,0.305-2.924-1.218-2.924c-4.325,0-11.939,7.005-12.975,7.005C0.305,24.11,0,24.354,0,22.648
		c0-1.888,1.645-9.441,2.559-11.147c0.609-1.157,8.832-3.35,17.056-3.35c9.807,0,18.518,2.619,18.518,5.482
		c0,2.68-2.985,8.467-3.655,8.467c-1.035,0-3.533-5.056-7.918-5.056c-3.716,0-4.325,11.635-4.325,17.238
		c0,15.655,3.35,23.33,3.35,24.426c0,1.34-2.193,1.036-2.985,1.036H16.203z"/>
	<path class="st0" d="M33.924,40.191c0-9.807,4.69-20.345,15.289-20.345s15.289,10.538,15.289,20.345
		c0,14.315-8.284,20.467-15.289,20.467S33.924,54.506,33.924,40.191z M56.949,38.668c0-4.812-1.706-11.634-7.736-11.634
		s-7.736,6.822-7.736,11.634c0,4.873,1.583,11.817,7.736,11.817S56.949,43.542,56.949,38.668z"/>
	<path class="st0" d="M71.93,59.745c-2.071,0-3.351,1.949-3.351-16.081c0-25.645-0.792-24.853,7.493-24.853
		c1.279,0,2.619,0.061,2.619,0.975c0,0.731-0.731,1.888-0.731,2.741c0,0.609,0.609,1.035,1.218,1.035
		c0.731,0,1.583-0.73,2.924-1.401c1.34-0.731,3.167-1.401,5.726-1.401c2.984,0,4.934,2.802,6.457,2.802
		c0.853,0,2.071-0.183,3.594-1.096c1.523-0.853,3.411-1.706,5.604-1.706c11.208,0,10.964,14.68,10.964,22.477
		c0,18.579-2.314,16.507-4.081,16.507h-4.142c-0.609,0-2.314,0.122-2.314-0.975s2.314-7.797,2.314-17.969
		c0-11.634-4.142-12.853-6.457-12.853c-2.132,0-4.142-0.183-4.142,9.868c0,21.868-0.305,21.929-2.254,21.929h-5.482
		c-1.157,0-2.132,0.244-2.132-0.609c0-0.914,2.314-13.157,2.314-18.944c0-3.655,0-12.244-4.995-12.244
		c-4.568,0-6.274,5.604-6.274,14.68c0,12.244,1.706,14.558,1.706,16.264c0,1.035-1.097,0.853-1.767,0.853H71.93z"/>
	<path class="st0" d="M133.627,34.405c1.766-0.305,3.167-0.609,3.167-2.619c0-3.106-3.229-4.751-5.909-4.751
		c-6.213,0-5.299,5.239-6.64,5.239c-1.949,0-4.081-2.376-4.081-4.995c0-4.507,5.056-7.431,10.66-7.431
		c1.949,0,10.294-0.061,13.401,8.467c1.279,3.533,1.401,21.563,1.401,23.695c0,2.68,0.487,4.264,0.487,6.335
		c0,1.279-5.726,1.401-11.147,1.401c-14.68,0-15.715-7.553-15.715-11.208C119.252,40.862,126.805,35.562,133.627,34.405z
		 M137.404,45.064c0-2.132,0.366-4.69-2.558-4.69c-3.594,0-7.371,3.045-7.371,6.761c0,3.411,2.985,5.421,6.213,5.421
		c3.594,0,3.715-1.828,3.715-4.813V45.064z"/>
	<path class="st0" d="M151.288,49.755c0-2.863,1.462-6.518,1.949-6.518c0.305,0,1.828,9.198,10.477,9.198
		c2.498,0,5.421-1.279,5.421-4.386c0-6.274-16.447-4.629-16.447-16.751c0-7.432,5.97-11.452,12.548-11.452
		c7.614,0,11.817,4.568,11.817,5.787c0,1.157-3.411,6.091-4.812,6.091c-1.583,0-1.949-4.69-7.553-4.69
		c-1.888,0-4.446,0.853-4.446,2.68c0,6.274,17.786,6.152,17.786,18.518c0,7.919-6.578,12.426-13.888,12.426
		C157.684,60.658,151.288,56.882,151.288,49.755z"/>
	<path class="st0" d="M185.029,59.745c-1.584,0-3.046,0.305-3.046-1.706c0-14.68,14.559-27.106,14.559-28.873
		c0-1.158-2.01-1.219-2.741-1.219c-5.178,0-6.396,1.584-7.492,1.584c-1.279,0-2.559-7.249-2.559-7.979
		c0-1.036,1.889-0.792,2.498-0.792h18.335c1.706,0,2.68-0.244,2.68,1.888c0,0.731-0.061,6.031-0.731,7.249
		c-2.01,3.777-13.706,15.229-13.706,21.32c0,1.218,0.731,1.34,2.498,1.34c7.126,0,7.979-1.889,8.954-1.889
		c1.096,0,2.68,7.249,2.68,8.224c0,0.914-1.827,0.853-2.375,0.853H185.029z"/>
	<path class="st0" d="M260.921,9.065c0.609,0,1.949-0.244,1.949,0.731c0,9.076-10.355,18.579-10.355,19.797
		c0,1.34,11.695,11.025,11.695,28.873c0,1.645-1.279,1.279-2.619,1.279h-7.432c-1.522,0-1.34-1.767-1.34-2.437
		c-0.305-13.827-5.665-20.345-6.7-20.345c-1.462,0-6.701,4.507-6.701,7.979c0,2.437,2.071,13.279,2.071,13.766
		c0,0.731-0.487,1.036-1.157,1.036h-7.431c-1.523,0-3.35,1.157-3.35-21.685c0-30.091,3.167-28.995,4.203-28.995h6.152
		c0.792,0,2.071-0.183,2.071,0.975c0,0.061-2.984,8.771-2.984,17.543c0,0.67-0.183,3.837,1.035,3.837
		c1.34,0,10.355-10.477,13.279-20.71c0.426-1.34,0.365-1.583,1.767-1.645H260.921z"/>
	<path class="st0" d="M282.601,34.405c1.767-0.305,3.167-0.609,3.167-2.619c0-3.106-3.228-4.751-5.908-4.751
		c-6.213,0-5.3,5.239-6.64,5.239c-1.949,0-4.081-2.376-4.081-4.995c0-4.507,5.056-7.431,10.66-7.431
		c1.949,0,10.294-0.061,13.4,8.467c1.279,3.533,1.401,21.563,1.401,23.695c0,2.68,0.487,4.264,0.487,6.335
		c0,1.279-5.726,1.401-11.147,1.401c-14.68,0-15.716-7.553-15.716-11.208C268.225,40.862,275.778,35.562,282.601,34.405z
		 M286.377,45.064c0-2.132,0.365-4.69-2.559-4.69c-3.594,0-7.37,3.045-7.37,6.761c0,3.411,2.984,5.421,6.213,5.421
		c3.594,0,3.716-1.828,3.716-4.813V45.064z"/>
	<path class="st0" d="M299.164,42.202c0-10.477,5.299-22.355,17.299-22.355c5.299,0,9.137,2.863,9.137,6.335
		c0,1.827-1.34,5.36-3.594,5.36c-1.4,0-1.158-4.508-6.092-4.508c-6.273,0-8.527,8.284-8.527,13.401
		c0,5.909,2.803,10.843,8.588,10.843c6.58,0,8.102-6.03,8.65-6.03c0.305,0,0.914,1.096,0.914,3.594c0,7.31-4.813,11.817-12,11.817
		C303.428,60.658,299.164,51.095,299.164,42.202z"/>
	<path class="st0" d="M333.15,59.745c-1.889,0-2.742,0.548-2.742-9.929V31.907c0-12.974,0.975-12.061,11.33-12.061
		c13.645,0,17.057,6.396,17.057,12.853c0,9.502-9.32,19.066-14.01,19.066c-1.098,0-2.254-1.462-3.229-2.619
		c-0.975-1.097-1.768-2.254-2.193-2.254c-0.609,0-0.426,1.096-0.426,2.193c0,4.264,1.156,9.137,1.156,9.807
		c0,0.975-1.279,0.853-1.949,0.853H333.15z M351.242,33.735c0-3.959-3.229-6.701-7.066-6.701c-3.229,0-5.543,0.244-5.543,12.366
		c0,2.132,0.061,4.568,2.801,4.568C346.855,43.968,351.242,38.791,351.242,33.735z"/>
	<path class="st0" d="M365.794,59.745c-2.254,0-3.35,1.888-3.35-18.274c0-16.873-0.488-20.649,1.217-20.71h5.057
		c0.914,0,2.01-0.305,2.07,0.853c0.123,0.914,0.244,2.071,1.463,2.071c0.914,0,1.949-0.975,3.229-1.949
		c1.279-0.914,2.74-1.888,4.385-1.888c3.107,0,5.666,2.68,5.666,5.969c0,4.264-3.473,6.822-5.301,6.822
		c-0.73,0,0.123-4.081-4.08-4.081c-5.117,0-5.482,8.223-5.482,11.878c0,12.122,2.07,17.238,2.07,18.335
		c-0.061,0.975-1.4,0.975-2.07,0.975H365.794z"/>
	<path class="st0" d="M391.253,59.745c-1.584,0-3.047,0.305-3.047-1.706c0-14.68,14.559-27.106,14.559-28.873
		c0-1.158-2.01-1.219-2.74-1.219c-5.178,0-6.396,1.584-7.494,1.584c-1.277,0-2.557-7.249-2.557-7.979
		c0-1.036,1.887-0.792,2.496-0.792h18.336c1.705,0,2.68-0.244,2.68,1.888c0,0.731-0.061,6.031-0.73,7.249
		c-2.01,3.777-13.705,15.229-13.705,21.32c0,1.218,0.73,1.34,2.496,1.34c7.127,0,7.98-1.889,8.955-1.889
		c1.096,0,2.68,7.249,2.68,8.224c0,0.914-1.828,0.853-2.375,0.853H391.253z"/>
	<path class="st0" d="M431.451,34.405c1.768-0.305,3.168-0.609,3.168-2.619c0-3.106-3.229-4.751-5.908-4.751
		c-6.213,0-5.301,5.239-6.641,5.239c-1.949,0-4.08-2.376-4.08-4.995c0-4.507,5.055-7.431,10.66-7.431
		c1.949,0,10.293-0.061,13.4,8.467c1.279,3.533,1.4,21.563,1.4,23.695c0,2.68,0.488,4.264,0.488,6.335
		c0,1.279-5.727,1.401-11.148,1.401c-14.68,0-15.715-7.553-15.715-11.208C417.076,40.862,424.628,35.562,431.451,34.405z
		 M435.228,45.064c0-2.132,0.365-4.69-2.559-4.69c-3.594,0-7.371,3.045-7.371,6.761c0,3.411,2.984,5.421,6.213,5.421
		c3.594,0,3.717-1.828,3.717-4.813V45.064z"/>
	<path class="st0" d="M451.486,59.745c-2.131,0-1.887-20.406-1.887-21.807c0-2.863-0.244-30.152,2.496-30.152h6.518
		c0.793,0,1.463,0.366,1.463,1.34c0,1.218-2.193,6.822-2.254,22.66c0,2.132,0,4.873,0.791,4.873c2.072,0,7.615-8.041,7.615-14.619
		c0-1.523,0.609-1.279,1.889-1.279h3.715c1.219,0,2.619-0.365,2.619,1.34c0,8.406-6.639,13.889-6.639,15.106
		c0,1.279,2.496,2.254,4.994,5.36c2.498,3.107,4.994,8.284,4.994,15.533c0,1.827-1.156,1.645-2.68,1.645h-4.934
		c-1.645,0-2.193,0.061-2.254-1.888c-0.061-8.406-4.02-15.167-5.848-15.167c-0.791,0-3.594,0.914-3.594,3.837
		c0,7.432,1.523,11.391,1.523,12.487c0,0.67-0.609,0.731-1.523,0.731H451.486z"/>
</g>
</svg>
